<mxfile host="app.diagrams.net" agent="Mozilla/5.0 (Windows NT 10.0; Win64; x64) AppleWebKit/537.36 (KHTML, like Gecko) Chrome/127.0.0.0 Safari/537.36" version="24.7.7">
  <diagram name="Página-1" id="BYT3pglaiAQ-TZzWWh-H">
    <mxGraphModel dx="880" dy="1677" grid="1" gridSize="10" guides="1" tooltips="1" connect="1" arrows="1" fold="1" page="1" pageScale="1" pageWidth="827" pageHeight="1169" math="0" shadow="0">
      <root>
        <mxCell id="0" />
        <mxCell id="1" parent="0" />
        <mxCell id="GlYWj81vdLsw13kxkPKB-78" style="edgeStyle=orthogonalEdgeStyle;rounded=0;orthogonalLoop=1;jettySize=auto;html=1;" edge="1" parent="1" source="GlYWj81vdLsw13kxkPKB-3">
          <mxGeometry relative="1" as="geometry">
            <mxPoint x="610" y="410" as="targetPoint" />
          </mxGeometry>
        </mxCell>
        <mxCell id="GlYWj81vdLsw13kxkPKB-3" value="ID_Ejemplar" style="ellipse;whiteSpace=wrap;html=1;align=center;fontStyle=4;" vertex="1" parent="1">
          <mxGeometry x="560" y="350" width="100" height="40" as="geometry" />
        </mxCell>
        <mxCell id="GlYWj81vdLsw13kxkPKB-29" style="edgeStyle=orthogonalEdgeStyle;rounded=0;orthogonalLoop=1;jettySize=auto;html=1;" edge="1" parent="1" source="GlYWj81vdLsw13kxkPKB-4">
          <mxGeometry relative="1" as="geometry">
            <mxPoint x="120" y="-20" as="targetPoint" />
          </mxGeometry>
        </mxCell>
        <mxCell id="GlYWj81vdLsw13kxkPKB-4" value="ID_Sucursal" style="ellipse;whiteSpace=wrap;html=1;align=center;fontStyle=4;" vertex="1" parent="1">
          <mxGeometry x="70" width="100" height="40" as="geometry" />
        </mxCell>
        <mxCell id="GlYWj81vdLsw13kxkPKB-33" style="edgeStyle=orthogonalEdgeStyle;rounded=0;orthogonalLoop=1;jettySize=auto;html=1;entryX=0.5;entryY=0;entryDx=0;entryDy=0;" edge="1" parent="1" source="GlYWj81vdLsw13kxkPKB-5" target="GlYWj81vdLsw13kxkPKB-6">
          <mxGeometry relative="1" as="geometry" />
        </mxCell>
        <mxCell id="GlYWj81vdLsw13kxkPKB-5" value="ID_Sucursal" style="ellipse;whiteSpace=wrap;html=1;align=center;fontStyle=4;" vertex="1" parent="1">
          <mxGeometry x="70" y="240" width="100" height="40" as="geometry" />
        </mxCell>
        <mxCell id="GlYWj81vdLsw13kxkPKB-34" style="edgeStyle=orthogonalEdgeStyle;rounded=0;orthogonalLoop=1;jettySize=auto;html=1;entryX=0.5;entryY=0;entryDx=0;entryDy=0;" edge="1" parent="1" source="GlYWj81vdLsw13kxkPKB-6" target="GlYWj81vdLsw13kxkPKB-7">
          <mxGeometry relative="1" as="geometry" />
        </mxCell>
        <mxCell id="GlYWj81vdLsw13kxkPKB-6" value="NIF" style="ellipse;whiteSpace=wrap;html=1;align=center;" vertex="1" parent="1">
          <mxGeometry x="70" y="300" width="100" height="40" as="geometry" />
        </mxCell>
        <mxCell id="GlYWj81vdLsw13kxkPKB-35" style="edgeStyle=orthogonalEdgeStyle;rounded=0;orthogonalLoop=1;jettySize=auto;html=1;" edge="1" parent="1" source="GlYWj81vdLsw13kxkPKB-7">
          <mxGeometry relative="1" as="geometry">
            <mxPoint x="120" y="420" as="targetPoint" />
          </mxGeometry>
        </mxCell>
        <mxCell id="GlYWj81vdLsw13kxkPKB-7" value="Nombre" style="ellipse;whiteSpace=wrap;html=1;align=center;" vertex="1" parent="1">
          <mxGeometry x="70" y="360" width="100" height="40" as="geometry" />
        </mxCell>
        <mxCell id="GlYWj81vdLsw13kxkPKB-38" style="edgeStyle=orthogonalEdgeStyle;rounded=0;orthogonalLoop=1;jettySize=auto;html=1;" edge="1" parent="1" source="GlYWj81vdLsw13kxkPKB-8">
          <mxGeometry relative="1" as="geometry">
            <mxPoint x="120" y="480" as="targetPoint" />
          </mxGeometry>
        </mxCell>
        <mxCell id="GlYWj81vdLsw13kxkPKB-8" value="Apellidos" style="ellipse;whiteSpace=wrap;html=1;align=center;" vertex="1" parent="1">
          <mxGeometry x="70" y="420" width="100" height="40" as="geometry" />
        </mxCell>
        <mxCell id="GlYWj81vdLsw13kxkPKB-9" value="Escribir" style="shape=rhombus;perimeter=rhombusPerimeter;whiteSpace=wrap;html=1;align=center;" vertex="1" parent="1">
          <mxGeometry x="460" y="170" width="70" height="42.5" as="geometry" />
        </mxCell>
        <mxCell id="GlYWj81vdLsw13kxkPKB-10" value="Publica" style="shape=rhombus;perimeter=rhombusPerimeter;whiteSpace=wrap;html=1;align=center;rotation=30;" vertex="1" parent="1">
          <mxGeometry x="220" y="100" width="70" height="62.5" as="geometry" />
        </mxCell>
        <mxCell id="GlYWj81vdLsw13kxkPKB-24" style="edgeStyle=orthogonalEdgeStyle;rounded=0;orthogonalLoop=1;jettySize=auto;html=1;entryX=0.5;entryY=0;entryDx=0;entryDy=0;" edge="1" parent="1" source="GlYWj81vdLsw13kxkPKB-13" target="GlYWj81vdLsw13kxkPKB-14">
          <mxGeometry relative="1" as="geometry" />
        </mxCell>
        <mxCell id="GlYWj81vdLsw13kxkPKB-26" style="edgeStyle=orthogonalEdgeStyle;rounded=0;orthogonalLoop=1;jettySize=auto;html=1;entryX=0.5;entryY=1;entryDx=0;entryDy=0;" edge="1" parent="1" source="GlYWj81vdLsw13kxkPKB-13" target="GlYWj81vdLsw13kxkPKB-4">
          <mxGeometry relative="1" as="geometry" />
        </mxCell>
        <mxCell id="GlYWj81vdLsw13kxkPKB-55" style="edgeStyle=orthogonalEdgeStyle;rounded=0;orthogonalLoop=1;jettySize=auto;html=1;entryX=0;entryY=0;entryDx=0;entryDy=0;" edge="1" parent="1" source="GlYWj81vdLsw13kxkPKB-13" target="GlYWj81vdLsw13kxkPKB-10">
          <mxGeometry relative="1" as="geometry">
            <Array as="points">
              <mxPoint x="248" y="100" />
            </Array>
          </mxGeometry>
        </mxCell>
        <mxCell id="GlYWj81vdLsw13kxkPKB-13" value="Sucursal" style="whiteSpace=wrap;html=1;align=center;" vertex="1" parent="1">
          <mxGeometry x="70" y="80" width="100" height="40" as="geometry" />
        </mxCell>
        <mxCell id="GlYWj81vdLsw13kxkPKB-32" style="edgeStyle=orthogonalEdgeStyle;rounded=0;orthogonalLoop=1;jettySize=auto;html=1;entryX=0.5;entryY=0;entryDx=0;entryDy=0;" edge="1" parent="1" source="GlYWj81vdLsw13kxkPKB-14" target="GlYWj81vdLsw13kxkPKB-5">
          <mxGeometry relative="1" as="geometry" />
        </mxCell>
        <mxCell id="GlYWj81vdLsw13kxkPKB-14" value="Empleado" style="whiteSpace=wrap;html=1;align=center;" vertex="1" parent="1">
          <mxGeometry x="70" y="170" width="100" height="40" as="geometry" />
        </mxCell>
        <mxCell id="GlYWj81vdLsw13kxkPKB-77" style="edgeStyle=orthogonalEdgeStyle;rounded=0;orthogonalLoop=1;jettySize=auto;html=1;entryX=0.5;entryY=0;entryDx=0;entryDy=0;" edge="1" parent="1" source="GlYWj81vdLsw13kxkPKB-15" target="GlYWj81vdLsw13kxkPKB-3">
          <mxGeometry relative="1" as="geometry" />
        </mxCell>
        <mxCell id="GlYWj81vdLsw13kxkPKB-15" value="Ejemplar" style="whiteSpace=wrap;html=1;align=center;" vertex="1" parent="1">
          <mxGeometry x="560" y="290" width="100" height="40" as="geometry" />
        </mxCell>
        <mxCell id="GlYWj81vdLsw13kxkPKB-57" style="edgeStyle=orthogonalEdgeStyle;rounded=0;orthogonalLoop=1;jettySize=auto;html=1;entryX=1;entryY=0.5;entryDx=0;entryDy=0;" edge="1" parent="1" source="GlYWj81vdLsw13kxkPKB-16" target="GlYWj81vdLsw13kxkPKB-9">
          <mxGeometry relative="1" as="geometry" />
        </mxCell>
        <mxCell id="GlYWj81vdLsw13kxkPKB-84" style="edgeStyle=orthogonalEdgeStyle;rounded=0;orthogonalLoop=1;jettySize=auto;html=1;" edge="1" parent="1" source="GlYWj81vdLsw13kxkPKB-16">
          <mxGeometry relative="1" as="geometry">
            <mxPoint x="610" y="150" as="targetPoint" />
          </mxGeometry>
        </mxCell>
        <mxCell id="GlYWj81vdLsw13kxkPKB-16" value="Periodista" style="whiteSpace=wrap;html=1;align=center;" vertex="1" parent="1">
          <mxGeometry x="560" y="170" width="100" height="40" as="geometry" />
        </mxCell>
        <mxCell id="GlYWj81vdLsw13kxkPKB-56" style="edgeStyle=orthogonalEdgeStyle;rounded=0;orthogonalLoop=1;jettySize=auto;html=1;entryX=1;entryY=1;entryDx=0;entryDy=0;" edge="1" parent="1" source="GlYWj81vdLsw13kxkPKB-17" target="GlYWj81vdLsw13kxkPKB-10">
          <mxGeometry relative="1" as="geometry">
            <Array as="points">
              <mxPoint x="270" y="188" />
              <mxPoint x="270" y="154" />
            </Array>
          </mxGeometry>
        </mxCell>
        <mxCell id="GlYWj81vdLsw13kxkPKB-59" style="edgeStyle=orthogonalEdgeStyle;rounded=0;orthogonalLoop=1;jettySize=auto;html=1;entryX=0;entryY=0.5;entryDx=0;entryDy=0;" edge="1" parent="1" source="GlYWj81vdLsw13kxkPKB-17" target="GlYWj81vdLsw13kxkPKB-9">
          <mxGeometry relative="1" as="geometry">
            <Array as="points">
              <mxPoint x="440" y="188" />
              <mxPoint x="440" y="191" />
            </Array>
          </mxGeometry>
        </mxCell>
        <mxCell id="GlYWj81vdLsw13kxkPKB-60" style="edgeStyle=orthogonalEdgeStyle;rounded=0;orthogonalLoop=1;jettySize=auto;html=1;" edge="1" parent="1" source="GlYWj81vdLsw13kxkPKB-17">
          <mxGeometry relative="1" as="geometry">
            <mxPoint x="368" y="110" as="targetPoint" />
          </mxGeometry>
        </mxCell>
        <mxCell id="GlYWj81vdLsw13kxkPKB-17" value="Revista" style="whiteSpace=wrap;html=1;align=center;" vertex="1" parent="1">
          <mxGeometry x="315" y="165" width="105" height="45" as="geometry" />
        </mxCell>
        <mxCell id="GlYWj81vdLsw13kxkPKB-65" style="edgeStyle=orthogonalEdgeStyle;rounded=0;orthogonalLoop=1;jettySize=auto;html=1;" edge="1" parent="1" source="GlYWj81vdLsw13kxkPKB-18">
          <mxGeometry relative="1" as="geometry">
            <mxPoint x="367.5" y="20" as="targetPoint" />
          </mxGeometry>
        </mxCell>
        <mxCell id="GlYWj81vdLsw13kxkPKB-18" value="Sección" style="whiteSpace=wrap;html=1;align=center;" vertex="1" parent="1">
          <mxGeometry x="317.5" y="70" width="100" height="40" as="geometry" />
        </mxCell>
        <mxCell id="GlYWj81vdLsw13kxkPKB-31" style="edgeStyle=orthogonalEdgeStyle;rounded=0;orthogonalLoop=1;jettySize=auto;html=1;" edge="1" parent="1" source="GlYWj81vdLsw13kxkPKB-27">
          <mxGeometry relative="1" as="geometry">
            <mxPoint x="120" y="-80" as="targetPoint" />
          </mxGeometry>
        </mxCell>
        <mxCell id="GlYWj81vdLsw13kxkPKB-27" value="Domicilio" style="ellipse;whiteSpace=wrap;html=1;align=center;" vertex="1" parent="1">
          <mxGeometry x="70" y="-60" width="100" height="40" as="geometry" />
        </mxCell>
        <mxCell id="GlYWj81vdLsw13kxkPKB-28" value="Teléfono" style="ellipse;whiteSpace=wrap;html=1;align=center;" vertex="1" parent="1">
          <mxGeometry x="70" y="-120" width="100" height="40" as="geometry" />
        </mxCell>
        <mxCell id="GlYWj81vdLsw13kxkPKB-44" style="edgeStyle=orthogonalEdgeStyle;rounded=0;orthogonalLoop=1;jettySize=auto;html=1;" edge="1" parent="1" source="GlYWj81vdLsw13kxkPKB-36">
          <mxGeometry relative="1" as="geometry">
            <mxPoint x="370" y="270" as="targetPoint" />
          </mxGeometry>
        </mxCell>
        <mxCell id="GlYWj81vdLsw13kxkPKB-36" value="ID_Revista" style="ellipse;whiteSpace=wrap;html=1;align=center;fontStyle=4;" vertex="1" parent="1">
          <mxGeometry x="320" y="220" width="100" height="30" as="geometry" />
        </mxCell>
        <mxCell id="GlYWj81vdLsw13kxkPKB-37" value="Teléfono" style="ellipse;whiteSpace=wrap;html=1;align=center;" vertex="1" parent="1">
          <mxGeometry x="70" y="480" width="100" height="40" as="geometry" />
        </mxCell>
        <mxCell id="GlYWj81vdLsw13kxkPKB-45" style="edgeStyle=orthogonalEdgeStyle;rounded=0;orthogonalLoop=1;jettySize=auto;html=1;" edge="1" parent="1" source="GlYWj81vdLsw13kxkPKB-39">
          <mxGeometry relative="1" as="geometry">
            <mxPoint x="370" y="320" as="targetPoint" />
          </mxGeometry>
        </mxCell>
        <mxCell id="GlYWj81vdLsw13kxkPKB-39" value="Título" style="ellipse;whiteSpace=wrap;html=1;align=center;" vertex="1" parent="1">
          <mxGeometry x="325" y="270" width="90" height="30" as="geometry" />
        </mxCell>
        <mxCell id="GlYWj81vdLsw13kxkPKB-46" style="edgeStyle=orthogonalEdgeStyle;rounded=0;orthogonalLoop=1;jettySize=auto;html=1;" edge="1" parent="1" source="GlYWj81vdLsw13kxkPKB-40">
          <mxGeometry relative="1" as="geometry">
            <mxPoint x="370" y="380" as="targetPoint" />
          </mxGeometry>
        </mxCell>
        <mxCell id="GlYWj81vdLsw13kxkPKB-40" value="Número_registro" style="ellipse;whiteSpace=wrap;html=1;align=center;" vertex="1" parent="1">
          <mxGeometry x="320" y="320" width="100" height="40" as="geometry" />
        </mxCell>
        <mxCell id="GlYWj81vdLsw13kxkPKB-49" style="edgeStyle=orthogonalEdgeStyle;rounded=0;orthogonalLoop=1;jettySize=auto;html=1;" edge="1" parent="1" source="GlYWj81vdLsw13kxkPKB-41">
          <mxGeometry relative="1" as="geometry">
            <mxPoint x="370" y="440" as="targetPoint" />
          </mxGeometry>
        </mxCell>
        <mxCell id="GlYWj81vdLsw13kxkPKB-41" value="Periodicidad" style="ellipse;whiteSpace=wrap;html=1;align=center;" vertex="1" parent="1">
          <mxGeometry x="320" y="380" width="100" height="40" as="geometry" />
        </mxCell>
        <mxCell id="GlYWj81vdLsw13kxkPKB-42" value="Tipo" style="ellipse;whiteSpace=wrap;html=1;align=center;" vertex="1" parent="1">
          <mxGeometry x="330" y="440" width="85" height="30" as="geometry" />
        </mxCell>
        <mxCell id="GlYWj81vdLsw13kxkPKB-89" style="edgeStyle=orthogonalEdgeStyle;rounded=0;orthogonalLoop=1;jettySize=auto;html=1;" edge="1" parent="1" source="GlYWj81vdLsw13kxkPKB-50">
          <mxGeometry relative="1" as="geometry">
            <mxPoint x="610" y="40" as="targetPoint" />
          </mxGeometry>
        </mxCell>
        <mxCell id="GlYWj81vdLsw13kxkPKB-50" value="Nombre" style="ellipse;whiteSpace=wrap;html=1;align=center;" vertex="1" parent="1">
          <mxGeometry x="560" y="60" width="100" height="40" as="geometry" />
        </mxCell>
        <mxCell id="GlYWj81vdLsw13kxkPKB-87" style="edgeStyle=orthogonalEdgeStyle;rounded=0;orthogonalLoop=1;jettySize=auto;html=1;" edge="1" parent="1" source="GlYWj81vdLsw13kxkPKB-51">
          <mxGeometry relative="1" as="geometry">
            <mxPoint x="610" y="100" as="targetPoint" />
          </mxGeometry>
        </mxCell>
        <mxCell id="GlYWj81vdLsw13kxkPKB-51" value="NIF" style="ellipse;whiteSpace=wrap;html=1;align=center;fontStyle=4;" vertex="1" parent="1">
          <mxGeometry x="560" y="120" width="100" height="30" as="geometry" />
        </mxCell>
        <mxCell id="GlYWj81vdLsw13kxkPKB-90" style="edgeStyle=orthogonalEdgeStyle;rounded=0;orthogonalLoop=1;jettySize=auto;html=1;" edge="1" parent="1" source="GlYWj81vdLsw13kxkPKB-52">
          <mxGeometry relative="1" as="geometry">
            <mxPoint x="610" y="-20" as="targetPoint" />
          </mxGeometry>
        </mxCell>
        <mxCell id="GlYWj81vdLsw13kxkPKB-52" value="Apellidos" style="ellipse;whiteSpace=wrap;html=1;align=center;" vertex="1" parent="1">
          <mxGeometry x="560" width="100" height="40" as="geometry" />
        </mxCell>
        <mxCell id="GlYWj81vdLsw13kxkPKB-91" style="edgeStyle=orthogonalEdgeStyle;rounded=0;orthogonalLoop=1;jettySize=auto;html=1;" edge="1" parent="1" source="GlYWj81vdLsw13kxkPKB-53">
          <mxGeometry relative="1" as="geometry">
            <mxPoint x="610" y="-80" as="targetPoint" />
          </mxGeometry>
        </mxCell>
        <mxCell id="GlYWj81vdLsw13kxkPKB-53" value="Teléfono" style="ellipse;whiteSpace=wrap;html=1;align=center;" vertex="1" parent="1">
          <mxGeometry x="560" y="-60" width="100" height="40" as="geometry" />
        </mxCell>
        <mxCell id="GlYWj81vdLsw13kxkPKB-54" value="Especialidad" style="ellipse;whiteSpace=wrap;html=1;align=center;" vertex="1" parent="1">
          <mxGeometry x="560" y="-120" width="100" height="40" as="geometry" />
        </mxCell>
        <mxCell id="GlYWj81vdLsw13kxkPKB-61" value="ID_Sección" style="ellipse;whiteSpace=wrap;html=1;align=center;fontStyle=4;" vertex="1" parent="1">
          <mxGeometry x="320" y="10" width="100" height="40" as="geometry" />
        </mxCell>
        <mxCell id="GlYWj81vdLsw13kxkPKB-63" value="Extensión" style="ellipse;whiteSpace=wrap;html=1;align=center;" vertex="1" parent="1">
          <mxGeometry x="320" y="-100" width="100" height="40" as="geometry" />
        </mxCell>
        <mxCell id="GlYWj81vdLsw13kxkPKB-72" style="edgeStyle=orthogonalEdgeStyle;rounded=0;orthogonalLoop=1;jettySize=auto;html=1;" edge="1" parent="1" source="GlYWj81vdLsw13kxkPKB-62">
          <mxGeometry relative="1" as="geometry">
            <mxPoint x="370" y="-60" as="targetPoint" />
          </mxGeometry>
        </mxCell>
        <mxCell id="GlYWj81vdLsw13kxkPKB-62" value="Título" style="ellipse;whiteSpace=wrap;html=1;align=center;" vertex="1" parent="1">
          <mxGeometry x="320" y="-40" width="100" height="40" as="geometry" />
        </mxCell>
        <mxCell id="GlYWj81vdLsw13kxkPKB-79" style="edgeStyle=orthogonalEdgeStyle;rounded=0;orthogonalLoop=1;jettySize=auto;html=1;" edge="1" parent="1" source="GlYWj81vdLsw13kxkPKB-73">
          <mxGeometry relative="1" as="geometry">
            <mxPoint x="610" y="470" as="targetPoint" />
          </mxGeometry>
        </mxCell>
        <mxCell id="GlYWj81vdLsw13kxkPKB-73" value="ID_Revista" style="ellipse;whiteSpace=wrap;html=1;align=center;" vertex="1" parent="1">
          <mxGeometry x="560" y="410" width="100" height="40" as="geometry" />
        </mxCell>
        <mxCell id="GlYWj81vdLsw13kxkPKB-81" style="edgeStyle=orthogonalEdgeStyle;rounded=0;orthogonalLoop=1;jettySize=auto;html=1;entryX=0.5;entryY=0;entryDx=0;entryDy=0;" edge="1" parent="1" source="GlYWj81vdLsw13kxkPKB-74" target="GlYWj81vdLsw13kxkPKB-75">
          <mxGeometry relative="1" as="geometry" />
        </mxCell>
        <mxCell id="GlYWj81vdLsw13kxkPKB-74" value="Fecha" style="ellipse;whiteSpace=wrap;html=1;align=center;" vertex="1" parent="1">
          <mxGeometry x="560" y="470" width="100" height="30" as="geometry" />
        </mxCell>
        <mxCell id="GlYWj81vdLsw13kxkPKB-82" style="edgeStyle=orthogonalEdgeStyle;rounded=0;orthogonalLoop=1;jettySize=auto;html=1;" edge="1" parent="1" source="GlYWj81vdLsw13kxkPKB-75">
          <mxGeometry relative="1" as="geometry">
            <mxPoint x="610" y="590" as="targetPoint" />
          </mxGeometry>
        </mxCell>
        <mxCell id="GlYWj81vdLsw13kxkPKB-75" value="Número_Páginas" style="ellipse;whiteSpace=wrap;html=1;align=center;" vertex="1" parent="1">
          <mxGeometry x="560" y="530" width="100" height="40" as="geometry" />
        </mxCell>
        <mxCell id="GlYWj81vdLsw13kxkPKB-76" value="Numeros_Vendidos" style="ellipse;whiteSpace=wrap;html=1;align=center;" vertex="1" parent="1">
          <mxGeometry x="560" y="590" width="100" height="40" as="geometry" />
        </mxCell>
      </root>
    </mxGraphModel>
  </diagram>
</mxfile>
